# xmcd
#
# Track frame offsets: 
#        150
#        19225
#        35405
#        61670
#        76330
#        91825
#        103020
#        122103
#        143183
#        159048
#        176350
#        195120
#        209495
#        226525
#
# Disc length: 3240 seconds
#
# Revision: 0
# Processed by: cddbd v1.5.2PL0 Copyright (c) Steve Scherf et al.
# Submitted via: ExactAudioCopy v1.3
#
DISCID=9f0ca60e
DTITLE=Kid Andersen - Rock Awhile
DYEAR=2003
DGENRE=Blues, Rock'n'Roll
TTITLE0=Rock Awhile
TTITLE1=Walkin' Thru The Park
TTITLE2=Someday You Got To Pay
TTITLE3=Lil' Earthquake
TTITLE4=Bald Headed Woman
TTITLE5=Aquavit Boogie
TTITLE6=Hangover Day
TTITLE7=Hobnobbing With The Hoy Poy
TTITLE8=I Really Love My Monkey
TTITLE9=All Your Love
TTITLE10=You Ain't So Pretty No More
TTITLE11=She's Got It
TTITLE12=I'm Broke
TTITLE13=Stompin' With The Kid
EXTD=
EXTT0=
EXTT1=
EXTT2=
EXTT3=
EXTT4=
EXTT5=
EXTT6=
EXTT7=
EXTT8=
EXTT9=
EXTT10=
EXTT11=
EXTT12=
EXTT13=
PLAYORDER=
